<?xml version="1.0" standalone="no"?>
<!DOCTYPE svg PUBLIC "-//W3C//DTD SVG 20010904//EN"
 "http://www.w3.org/TR/2001/REC-SVG-20010904/DTD/svg10.dtd">
<svg version="1.0" xmlns="http://www.w3.org/2000/svg"
 width="151.000000pt" height="151.000000pt" viewBox="0 0 151.000000 151.000000"
 preserveAspectRatio="xMidYMid meet">
<metadata>
Created by potrace 1.15, written by Peter Selinger 2001-2017
</metadata>
<g transform="translate(0.000000,151.000000) scale(0.100000,-0.100000)"
fill="#000000" stroke="none">
<path d="M554 970 c-1 -17 -11 -42 -24 -55 -18 -19 -21 -31 -16 -57 3 -18 7
-39 8 -45 1 -10 30 -13 105 -13 l104 0 -3 83 -3 82 -47 -1 c-27 0 -48 4 -48 9
0 5 -13 7 -30 4 -19 -4 -29 -3 -27 5 1 6 -2 12 -8 14 -5 2 -10 -10 -11 -26z"/>
<path d="M900 985 c0 -11 -8 -13 -30 -8 -20 3 -30 1 -30 -6 0 -7 -4 -9 -10 -6
-5 3 -10 1 -10 -6 0 -8 -4 -8 -16 2 -13 10 -17 10 -25 -2 -6 -10 -9 -11 -9 -1
0 7 -4 10 -10 7 -5 -3 -10 -43 -9 -88 0 -45 3 -77 5 -71 3 7 14 10 24 7 11 -3
20 0 20 6 0 6 -6 11 -14 11 -17 0 -33 73 -17 78 6 2 11 10 11 17 0 7 15 15 33
18 84 12 116 -96 37 -126 -8 -3 11 -6 43 -6 42 -1 56 2 51 11 -5 7 -2 9 7 6
22 -9 11 73 -13 96 -11 10 -17 25 -14 33 4 9 2 11 -6 7 -7 -5 -9 0 -6 14 4 12
2 22 -3 22 -5 0 -9 -7 -9 -15z"/>
<path d="M837 792 c-84 -2 -98 -5 -93 -18 3 -9 6 -39 6 -67 0 -37 3 -48 10
-37 9 13 10 13 11 0 1 -8 5 7 9 34 12 69 18 82 32 68 14 -14 20 -36 22 -79 1
-33 16 -48 16 -16 0 26 8 11 14 -27 8 -52 -3 -63 -63 -59 l-51 4 0 -32 0 -31
38 10 c20 5 53 19 73 30 28 16 35 25 31 41 -3 13 -1 18 6 13 7 -4 10 -2 7 7
-7 17 39 67 62 67 12 0 14 3 6 8 -6 4 -13 25 -15 46 -2 22 -7 40 -13 41 -5 0
-54 -1 -108 -3z"/>
<path d="M522 758 c-2 -18 -5 -34 -7 -36 -2 -3 12 -19 31 -36 22 -20 38 -45
43 -66 7 -37 42 -61 109 -73 l32 -6 0 124 0 125 -103 0 -103 0 -2 -32z"/>
</g>
</svg>
